<?xml version="1.0" encoding="UTF-8" standalone="no"?>
<!-- Generator: Adobe Illustrator 16.0.3, SVG Export Plug-In . SVG Version: 6.00 Build 0)  -->

<svg
   xmlns:dc="http://purl.org/dc/elements/1.1/"
   xmlns:cc="http://creativecommons.org/ns#"
   xmlns:rdf="http://www.w3.org/1999/02/22-rdf-syntax-ns#"
   xmlns:svg="http://www.w3.org/2000/svg"
   xmlns="http://www.w3.org/2000/svg"
   xmlns:sodipodi="http://sodipodi.sourceforge.net/DTD/sodipodi-0.dtd"
   xmlns:inkscape="http://www.inkscape.org/namespaces/inkscape"
   version="1.1"
   id="Capa_1"
   x="0px"
   y="0px"
   width="209px"
   height="159px"
   viewBox="601 54 209 159"
   enable-background="new 601 54 209 159"
   xml:space="preserve"
   inkscape:version="0.91 r13725"
   sodipodi:docname="ByronsMonito.svg"><metadata
     id="metadata27"><rdf:RDF><cc:Work
         rdf:about=""><dc:format>image/svg+xml</dc:format><dc:type
           rdf:resource="http://purl.org/dc/dcmitype/StillImage" /></cc:Work></rdf:RDF></metadata><defs
     id="defs25" /><sodipodi:namedview
     pagecolor="#ffffff"
     bordercolor="#666666"
     borderopacity="1"
     objecttolerance="10"
     gridtolerance="10"
     guidetolerance="10"
     inkscape:pageopacity="0"
     inkscape:pageshadow="2"
     inkscape:window-width="1315"
     inkscape:window-height="744"
     id="namedview23"
     showgrid="false"
     inkscape:zoom="0.88980423"
     inkscape:cx="-16.235525"
     inkscape:cy="93.807142"
     inkscape:window-x="51"
     inkscape:window-y="24"
     inkscape:window-maximized="1"
     inkscape:current-layer="Capa_1" /><path
     fill="#020202"
     d="M680.578,188.034c0.131-0.05,0.264-0.099,0.395-0.148c0.131-0.081,0.263-0.163,0.394-0.247  c0.13-0.048,0.259-0.097,0.389-0.145c0.134-0.086,0.268-0.174,0.4-0.262c2.488-1.555,5.153-2.765,7.791-4.031  c0.671-0.322,0.838-0.164,0.874,0.47c0.354-0.149,0.73-0.262,1.063-0.452c4.485-2.566,8.667-5.555,12.461-9.072  c0.287-0.266,0.548-0.563,0.852-0.807c1.486-1.191,1.56-1.214,0.861-2.959c-1.225-3.059-1.688-6.279-2.147-9.5  c-0.947-6.643-0.908-13.294,0.75-19.808c2.087-8.19,6.021-15.415,12.487-21.004c4.636-4.006,9.528-7.735,15.016-10.514  c3.594-1.818,7.375-3.266,11.091-4.836c2.302-0.973,3.784-2.685,4.76-4.923c0.407-0.936,0.606-1.977,0.251-2.863  c-1.178-2.93-0.428-5.781,0.128-8.649c0.198-1.022,0.593-1.995,1.051-2.937c1.774-3.648,4.691-5.593,8.741-5.41  c5.527,0.25,10.805,1.584,15.689,4.288c2.616,1.449,4.306,3.732,5.763,6.24c0.354,0.608,0.373,1.045-0.167,1.697  c-1.342,1.614-1.256,2.113,0.048,3.656c0.162,0.192,0.438,0.433,0.412,0.615c-0.146,1.001,0.487,1.56,1.103,2.148  c0.869,0.832,1.184,1.87,1.008,3.033c-0.283,1.871-0.675,3.719-1.584,5.408c-1.582,2.932-4.187,4.317-7.341,3.334  c-2.765-0.861-4.827-0.019-6.806,1.674c-0.989,0.847-1.981,1.704-2.871,2.651c-1.119,1.192-1.913,2.551-2.374,4.19  c-0.862,3.068-1.955,6.072-2.982,9.092c-1.003,2.945-1.438,6.054-2.872,9.02c1.285,0.151,2.314,0.255,3.34,0.397  c0.613,0.085,1.275,0.078,1.621-0.423c0.555-0.803,1.675-0.006,2.154-0.916c0.364-0.688,0.785-1.365,1.285-1.959  c1.063-1.262,2.353-2.244,3.919-2.813c1.836,0.188,3.498,1.16,5.434,1.049c1.405-0.081,2.731,0.085,2.877-1.842  c0.01-0.141,0.264-0.264,0.403-0.396c0.417,0.27,0.619,0.7,0.646,1.151c0.085,1.432,0.835,2.586,1.457,3.808  c0.514,1.009,0.722,2.096,0.188,3.177c-0.371,0.753-0.811,1.473-1.22,2.207c-0.846,0.45-1.742,0.827-2.526,1.365  c-1.307,0.893-2.931,1.202-4.111,2.302c-1.766,0.113-3.518,0.053-5.261-0.281c-1.646-0.315-3.335-0.042-4.813,0.493  c-2.199,0.797-4.408,1.55-7.146,2.296c2.768,0.629,4.794,1.683,6.435,3.441c0.699,0.75,1.136,1.527,1.222,2.566  c0.289,3.5-0.353,6.884-1.221,10.234c-1.184,4.57-3.115,8.84-5.35,12.98c-0.278,0.516-0.651,1.012-0.788,1.564  c-0.346,1.393-0.765,2.994-0.132,4.19c0.419,0.793,2.027,0.366,3.106,0.409c3.337,0.131,6.624,0.551,9.802,1.623  c1.428,0.481,2.764,1.144,3.94,2.104c1.233,1.007,1.751,2.261,1.308,3.815c-0.419,1.467-1.45,2.17-3.281,2.25  c-1.365,0.061-2.662-0.139-4.013-0.559c-4.237-1.318-8.607-2.084-13.026-2.523c-3.439-0.342-6.872-0.687-10.314,0.129  c-1.32,0.312-1.92-0.492-1.544-1.842c0.371-1.33,1.134-2.483,1.733-3.711c0.356-0.733,0.925-1.408,0.882-2.349  c-0.601-0.143-0.691,0.329-0.813,0.609c-2.017,4.675-5.596,6.894-10.643,7.293c-6.282,0.498-12.513,0.272-18.722-0.677  c-1.181-0.181-2.14,0.047-3.177,0.537c-6.482,3.063-13.101,5.805-20.012,7.746c-6.42,1.805-12.943,2.909-19.656,2.985  c-4.829,0.056-9.642,0.208-14.438-0.495c-2.333-0.342-4.582-0.91-6.734-1.911c-2.891-1.345-5.816-2.614-8.746-3.874  c-0.768-0.33-1.288-0.669-0.799-1.572c0.341-0.629-0.076-0.955-0.48-1.305c-1.438-1.244-2.689-2.654-3.725-4.256  c-0.646-1-1.092-2.068-1.261-3.253c-0.3-2.11,0.192-2.687,2.358-2.594c0.069-0.562-0.336-0.929-0.563-1.341  c-1.066-1.942-2.125-3.891-3.238-5.806c-0.96-1.649-1.241-3.391-0.943-5.329c0.861-0.345,1.635,0.387,2.536,0.17  c0.229-0.863-0.066-1.748-0.15-2.636c-0.355-3.793-0.366-7.556,0.903-11.22c0.236-0.682,0.354-1.382,1.391-1.242  c0.632,0.084,0.574-0.564,0.673-0.988c0.563-2.41,1.111-4.828,1.992-7.147c0.411-1.083,0.743-2.25,2.133-2.58  c0.655-0.155,0.724-0.866,0.98-1.377c1.489-2.976,3.045-5.913,5.063-8.576c0.474-0.625,1.014-1.18,1.589-1.718  c0.797-0.745,1.472-1.177,2.469-0.256c0.771,0.711,1.496,0.341,2.201-0.345c1.775-1.728,3.652-3.353,5.417-5.091  c0.852-0.837,1.73-1.381,2.94-1.124c0.904,0.192,1.62-0.104,2.363-0.607c1.455-0.985,2.992-1.847,4.459-2.818  c0.701-0.466,1.388-0.761,2.151-0.282c0.8,0.502,1.318,0.1,1.871-0.42c1.331-1.25,2.688-2.473,4.021-3.721  c0.61-0.572,1.183-0.955,2.052-0.381c0.991,0.656,1.708,0.043,2.346-0.698c2.346-2.725,2.876-5.912,2.361-9.351  c-0.528-3.531-1.954-6.741-3.697-9.964c1.314-0.048,2.285,0.891,3.844,1.029c-3.83-4.366-7.908-7.958-12.289-11.77  c2.016-0.107,3.545,0.736,5.401,0.779c-1.084-1.206-2.365-1.836-3.402-2.753c-2.365-2.091-5.063-3.366-8.243-3.554  c-0.315-0.019-0.627-0.129-0.985-0.208c-0.031-0.822,0.983-0.601,1.083-1.193c-2.141-1.458-4.49-1.378-6.374,0.162  c-0.705,0.576-1.456,1.099-2.22,1.595c-0.317,0.207-0.812,0.489-1.073,0.378c-1.433-0.604-2.075,0.49-2.841,1.244  c-1.903,1.875-3.776,3.783-5.636,5.704c-0.931,0.961-2.032,1.635-3.27,2.079c-1.991,0.715-3.927,0.198-5.327-1.358  c-0.84-0.934-1.038-2.035-0.338-3.041c4.38-6.286,9.779-11.343,17.14-13.979c4.56-1.632,9.086-1.332,13.601,0.232  c6.908,2.394,12.536,6.504,17.04,12.278c4.023,5.158,6.389,11.034,7.786,17.315c0.869,3.902,0.246,7.802-1.078,11.545  c-2.729,7.707-7.817,13.265-15.31,16.609c-4.403,1.967-8.732,4.077-12.665,6.917c-3.572,2.581-6.694,5.637-9.335,9.146  c-3.604,4.793-6.974,9.744-9.316,15.317c-0.93,2.208-1.582,4.403-0.772,6.812c0.202,0.603,0.378,1.764,0.17,1.865  c-1.541,0.759-0.853,1.99-0.728,3.02c0.141,1.156,0.504,2.289,0.804,3.422c0.316,1.192,0.471,2.438,1.013,3.561  c0.511,1.055,0.947,2.18,1.646,3.1c0.864,1.141,2.091,1.951,3.329,2.682c5.121,3.023,10.706,4.709,16.544,5.615  c1.802,0.281,3.62,0.434,5.454,0.457c1.039,0.014,1.882-0.205,2.708-0.832c0.925-0.707,1.944-1.287,2.924-1.922  c0.6,0.537-0.537,1.203,0.268,1.848C678.981,188.977,679.78,188.505,680.578,188.034z M744.299,148.292  c-0.537,0.345-1.403-0.347-1.845,0.665C743.23,149.001,743.788,148.723,744.299,148.292z"
     id="path3"
     style="fill:#ffffff" /><path
     fill="#D7D604"
     d="M776.24,130.082c-0.141,0.131-0.395,0.254-0.403,0.396c-0.146,1.927-1.472,1.761-2.877,1.842  c-1.936,0.111-3.598-0.86-5.434-1.049c0.141-0.63,0.266-1.262,0.418-1.886c0.474-1.92,1.307-3.648,2.779-5.01  c0.997-0.92,1.999-1.837,3.033-2.713c1.673-1.417,3.521-2.41,5.818-2.186c-0.117,1.086,0.916,1.343,1.426,1.978  c-0.919,1.335-2.259,2.335-3.021,3.793C777.178,126.778,776.152,128.23,776.24,130.082z"
     id="path5"
     style="fill:#ffffff" /><path
     fill="#D7D604"
     d="M770.673,144.091c1.182-1.1,2.806-1.409,4.11-2.302c0.785-0.538,1.683-0.915,2.527-1.365  c2.146,2.247,4.823,3.22,7.88,3.279c-0.018,0.881,0.532,1.464,1.078,2.048c-2.214,1.567-4.762,2.292-7.359,2.866  c-0.919,0.203-1.814-0.047-2.65-0.424C774.11,147.223,772.162,145.964,770.673,144.091z"
     id="path7"
     style="fill:#ffffff" /><path
     fill="#090808"
     d="M680.578,188.034c-0.799,0.471-1.598,0.94-2.338,1.377c-0.805-0.646,0.332-1.312-0.268-1.849  c0.413-0.513,0.965-0.816,1.601-1.147c0.218,0.687-0.847,1.101-0.251,1.705C679.744,188.549,680.158,188.074,680.578,188.034z"
     id="path9"
     style="fill:#ffffff" /><path
     fill="#090808"
     d="M781,121.454c-0.509-0.635-1.543-0.892-1.425-1.978c0.123-0.038,0.246-0.107,0.37-0.109  c0.562-0.01,1.238-0.271,1.564,0.406C781.828,120.432,781.636,121.034,781,121.454z"
     id="path11"
     style="fill:#ffffff" /><path
     fill="#090808"
     d="M786.27,145.751c-0.546-0.584-1.096-1.167-1.078-2.048c0.701-0.267,1.435-0.3,1.813,0.418  C787.388,144.847,787.003,145.425,786.27,145.751z"
     id="path13"
     style="fill:#ffffff" /><path
     fill="#090808"
     d="M681.365,187.641c-0.131,0.082-0.263,0.164-0.394,0.246C681.034,187.693,681.152,187.59,681.365,187.641z"
     id="path15"
     style="fill:#ffffff" /><path
     fill="#090808"
     d="M682.155,187.234c-0.134,0.086-0.268,0.174-0.4,0.261C681.817,187.3,681.939,187.193,682.155,187.234z"
     id="path17"
     style="fill:#ffffff" /><path
     fill="#D7D604"
     d="M744.299,148.293c-0.511,0.43-1.068,0.708-1.845,0.664C742.896,147.945,743.762,148.637,744.299,148.293z"
     id="path19" /><path
     fill="none"
     d="M765.147,75.75c0.107-0.036,0.216-0.07,0.324-0.103c-0.188-0.069-0.406-0.111-0.627-0.068  C764.844,75.579,764.954,75.642,765.147,75.75z"
     id="path21" /></svg>